<svg width="289" height="160" viewBox="0 0 289 160" fill="none" xmlns="http://www.w3.org/2000/svg">
<path d="M46.384 0H0C0 36.7471 33.314 49.8169 72.1537 53.9623V46.0359C55.6492 38.4664 46.384 23.8885 46.384 0Z" fill="#00454A"/>
<path d="M72.1537 62.5444V54.618C33.314 58.7779 0 71.8404 0 108.595H46.384C46.384 84.699 55.6492 70.1211 72.1537 62.5444Z" fill="#00454A"/>
<path d="M83.2492 92.8659H96.5153V108.821H92.4781V97.7835H92.3982C92.3982 104.974 88.4845 109.229 81.8115 109.229C74.8118 109.229 70.4043 103.4 70.4043 93.5216C70.4043 83.6427 75.429 77.8145 83.9172 77.8145C90.6701 77.8145 95.2446 82.0326 96.2757 89.0557H92.1586C91.251 84.262 88.165 81.3697 83.9172 81.3697C78.1882 81.3697 74.8554 85.872 74.8554 93.5216C74.8554 101.171 78.1083 105.673 83.6704 105.673C89.2324 105.673 92.1949 102.038 92.3619 95.9185H83.2565V92.8586L83.2492 92.8659Z" fill="#00454A"/>
<path d="M115.256 88.4438L114.022 92.2904C113.238 91.8387 112.127 91.5473 111.06 91.5473C107.516 91.5473 105.454 94.3157 105.454 99.0293V108.828H101.337V88.247H105.454V96.3046H105.534C105.534 90.9718 107.966 87.8318 112.083 87.8318C113.238 87.8318 114.429 88.0795 115.256 88.451V88.4438Z" fill="#00454A"/>
<path d="M115.997 98.5339C115.997 91.795 119.831 87.8318 126.257 87.8318C132.683 87.8318 136.517 91.8023 136.517 98.5339C136.517 105.266 132.727 109.236 126.257 109.236C119.787 109.236 115.997 105.266 115.997 98.5339ZM132.313 98.5339C132.313 93.9077 130.091 91.1757 126.257 91.1757C122.423 91.1757 120.201 93.9005 120.201 98.5339C120.201 103.167 122.423 105.892 126.257 105.892C130.091 105.892 132.313 103.167 132.313 98.5339Z" fill="#00454A"/>
<path d="M154.43 88.2397H158.547V108.821H154.43V101.674H154.35C154.35 106.424 151.881 109.236 147.677 109.236C143.189 109.236 140.554 106.14 140.554 100.931V88.2397H144.671V100.807C144.671 104.034 146.363 105.892 149.245 105.892C152.498 105.892 154.437 103.495 154.437 99.4446V88.247L154.43 88.2397Z" fill="#00454A"/>
<path d="M184.128 98.5339C184.128 105.273 180.955 109.236 175.603 109.236C170.949 109.236 168.146 106.511 168.146 101.965H168.066V118.335H163.949V88.247H168.066V95.1098H168.146C168.146 90.5638 170.949 87.8391 175.603 87.8391C180.962 87.8391 184.128 91.8095 184.128 98.5412V98.5339ZM179.924 98.5339C179.924 93.9077 177.702 91.1757 173.868 91.1757C170.034 91.1757 167.769 94.068 167.769 98.5339C167.769 103 170.034 105.892 173.868 105.892C177.702 105.892 179.924 103.167 179.924 98.5339Z" fill="#00454A"/>
<path d="M206.666 99.1094H191.258C191.425 103.451 193.567 106.009 196.987 106.009C199.993 106.009 202.092 104.355 202.629 101.543H206.666C205.969 106.38 202.382 109.229 196.987 109.229C190.852 109.229 187.265 105.258 187.265 98.5266C187.265 91.795 190.852 87.8245 196.987 87.8245C203.123 87.8245 206.666 91.795 206.666 98.5266V99.1021V99.1094ZM191.302 97.3755H202.586C202.259 93.3686 200.24 91.0519 196.98 91.0519C193.72 91.0519 191.621 93.3686 191.295 97.3755H191.302Z" fill="#00454A"/>
<path d="M82.8647 119.902C89.4941 119.902 93.4078 123.377 93.4078 129.241C93.4078 135.106 89.494 138.625 82.8211 138.625H76.395V150.485H72.0674V119.902H82.8574H82.8647ZM83.068 135.15C86.7784 135.15 89.0003 132.957 89.0003 129.241C89.0003 125.526 86.8147 123.333 83.1115 123.333H76.395V135.157H83.068V135.15Z" fill="#00454A"/>
<path d="M114.588 140.774H99.1801C99.3471 145.116 101.489 147.673 104.909 147.673C107.915 147.673 110.014 146.02 110.551 143.207H114.588C113.891 148.045 110.304 150.893 104.909 150.893C98.7735 150.893 95.1865 146.923 95.1865 140.191C95.1865 133.46 98.7735 129.489 104.909 129.489C111.045 129.489 114.588 133.46 114.588 140.191V140.767V140.774ZM99.2237 139.04H110.507C110.181 135.033 108.162 132.717 104.902 132.717C101.642 132.717 99.5432 135.033 99.2164 139.04H99.2237Z" fill="#00454A"/>
<path d="M132.713 130.108L131.478 133.955C130.694 133.503 129.583 133.212 128.516 133.212C124.972 133.212 122.91 135.98 122.91 140.694V150.493H118.793V129.912H122.91V137.969H122.99C122.99 132.636 125.422 129.496 129.539 129.496C130.694 129.496 131.885 129.744 132.713 130.116V130.108Z" fill="#00454A"/>
<path d="M133.576 143.834H137.49C137.49 146.522 139.341 148.132 142.515 148.132C145.688 148.132 147.459 146.93 147.459 144.868C147.459 142.268 144.744 141.809 141.774 141.269C138.231 140.694 134.193 139.987 134.193 135.521C134.193 131.762 137.279 129.489 142.515 129.489C147.75 129.489 150.836 132.01 150.836 136.308H146.922C146.922 133.744 145.317 132.214 142.515 132.214C139.712 132.214 138.187 133.328 138.187 135.186C138.187 137.335 140.656 137.787 143.459 138.282C147.125 138.945 151.453 139.689 151.453 144.482C151.453 148.489 148.113 150.886 142.515 150.886C136.916 150.886 133.576 148.285 133.576 143.819V143.834Z" fill="#00454A"/>
<path d="M175.677 140.199C175.677 146.937 172.504 150.901 167.152 150.901C162.498 150.901 159.695 148.176 159.695 143.63H159.615V160H155.498V129.912H159.615V136.774H159.695C159.695 132.228 162.498 129.504 167.152 129.504C172.511 129.504 175.677 133.474 175.677 140.206V140.199ZM171.473 140.199C171.473 135.572 169.251 132.84 165.417 132.84C161.583 132.84 159.317 135.733 159.317 140.199C159.317 144.664 161.583 147.557 165.417 147.557C169.251 147.557 171.473 144.832 171.473 140.199Z" fill="#00454A"/>
<path d="M198.207 140.774H182.799C182.966 145.116 185.108 147.673 188.528 147.673C191.534 147.673 193.633 146.02 194.17 143.207H198.207C197.51 148.045 193.923 150.893 188.528 150.893C182.393 150.893 178.806 146.923 178.806 140.191C178.806 133.46 182.393 129.489 188.528 129.489C194.664 129.489 198.207 133.46 198.207 140.191V140.767V140.774ZM182.843 139.04H194.127C193.8 135.033 191.781 132.717 188.521 132.717C185.261 132.717 183.162 135.033 182.836 139.04H182.843Z" fill="#00454A"/>
<path d="M201.257 140.199C201.257 133.46 205.047 129.496 211.43 129.496C216.621 129.496 220.078 132.265 221.029 137.022H216.948C216.128 134.378 214.232 132.848 211.43 132.848C207.639 132.848 205.454 135.572 205.454 140.206C205.454 144.839 207.639 147.564 211.43 147.564C214.356 147.564 216.331 145.91 217.035 142.974H221.152C220.288 148.016 216.788 150.908 211.43 150.908C205.047 150.908 201.257 146.937 201.257 140.206V140.199Z" fill="#00454A"/>
<path d="M236.852 132.921H230.099V144.118C230.099 146.311 231.42 147.549 233.686 147.549C234.673 147.549 235.748 147.302 236.568 146.886V150.026C235.414 150.566 233.853 150.893 232.364 150.893C228.371 150.893 225.982 148.54 225.982 144.526V132.913H222.809V129.897H226.272V122.874H230.389V124.608C230.389 127.005 228.908 128.906 226.432 129.817V129.897H236.852V132.913V132.921Z" fill="#00454A"/>
<path d="M240.104 125.606V120.936H244.221V125.606H240.104ZM240.104 150.485V129.904H244.221V150.485H240.104Z" fill="#00454A"/>
<path d="M263.296 129.904H267.747L261.611 150.485H253.74L247.604 129.904H252.012L257.618 150.201H257.697L263.303 129.904H263.296Z" fill="#00454A"/>
<path d="M289 140.774H273.592C273.759 145.116 275.901 147.673 279.321 147.673C282.327 147.673 284.426 146.02 284.963 143.207H289C288.303 148.045 284.716 150.893 279.321 150.893C273.186 150.893 269.599 146.923 269.599 140.191C269.599 133.46 273.186 129.489 279.321 129.489C285.457 129.489 289 133.46 289 140.191V140.767V140.774ZM273.636 139.04H284.92C284.593 135.033 282.574 132.717 279.314 132.717C276.054 132.717 273.955 135.033 273.629 139.04H273.636Z" fill="#00454A"/>
</svg>
