<svg width="100" height="46" viewBox="0 0 100 46" fill="none" xmlns="http://www.w3.org/2000/svg">
<g id="Group">
<g id="Vector">
<path d="M79.3058 0.0644531C73.542 0.0644531 68.3336 2.42557 64.5836 6.24501C60.8336 2.42557 55.6253 0.0644531 49.8614 0.0644531C38.4725 0.0644531 29.167 9.37001 29.167 20.7589V45.2033H41.1114V20.6894C41.1114 15.8978 45.0003 12.0089 49.792 12.0089C54.5836 12.0089 58.4725 15.8978 58.4725 20.6894V45.2033H70.417V20.6894C70.417 15.8978 74.3058 12.0089 79.0975 12.0089C83.8892 12.0089 87.7781 15.8978 87.7781 20.6894V45.2033H100V20.6894C100 9.30056 90.6947 0.0644531 79.3058 0.0644531Z" fill="#227AB3"/>
<path d="M20.6944 0.621099C19.6528 0.621099 18.6806 0.690545 17.7083 0.898878C11.5972 2.07943 11.875 7.4961 11.875 7.4961H10.5556V0.621099H0V45.2044H11.9444V21.3155C11.9444 16.5239 15.8333 12.635 20.625 12.635H28.5417V0.621099H20.6944Z" fill="#227AB3"/>
</g>
</g>
</svg>
